
<svg xmlns="http://www.w3.org/2000/svg" viewBox="0 0 18.28 7" fill="#ff5268">
                            <path d="M2.4.01c-.37.04-.84.62-1.01.85-.09.15-.17.27-.36.64-.38.02-.86.1-.84.3.03.4.34.3.6.26-.04.2-.91 2.1-.77 2.42.11.2.3.18.43.14a.34.34 0 0 0 .07-.13c.04-.1.82-2.47.89-2.46.06-.06.64-.12.78-.16.17-.07.18-.34.02-.43-.1-.06-.32 0-.49.01.18-.43.68-1 .78-.94.07.07-.17.44-.19.53 0 .13.08.16.15.2.11.05.27.01.38-.13.12-.15.22-.47.25-.66 0-.4-.26-.49-.68-.44zm10.32.2c-.12.1-.94 2.19-1.25 3.03-.07.24-.18.74.08 1.03.32.32.95.16 1.42-.35.18-.16.33-.35.45-.55.15-.26.26-.53.33-.8.22-.74.07-.98-.44-1.06-.32-.02-.44.1-.65.25.16-.44.47-.9.54-1.38-.04-.2-.32-.27-.48-.17zM7.18 2.55c-.29.51-1.04 1.46-1.2 1.4-.15-.02.06-.49.15-.71.16-.45.62-1.18.56-1.39-.07-.28-.31-.38-.54-.34-.5.14-.64.46-.89.76.05-.2.16-.43.18-.54 0-.33-.49-.33-.57-.07l-.19.55c-.3.9-.48 1.17-.6 1.33-.13.16-.38.5-.56.34-.23-.29.52-1.54.75-2.2.02-.25-.37-.34-.46-.09l-.08.15a.28.28 0 0 0-.22-.23c-.23-.05-.42.07-.55.14-.3.18-.5.43-.67.65-.4.61-.81 1.16-.74 1.81a.5.5 0 0 0 .3.38c.1.04.23.03.38-.03.3-.1.59-.47.82-.72-.05.25 0 .52.16.63.26.17.6.04.86-.18.04.26.18.28.34.26.24-.05.22-.19.3-.46.13-.3.25-.62.4-.9l.28-.37c.22-.27.6-.65.65-.57.08.05-.24.45-.33.65-.17.38-.33.82-.33 1.1.03.5.12.53.4.56.48.04.8-.3 1.1-.68 0 .35.2.56.47.63.21.06.48 0 .67-.04.37-.16.68-.41.97-.65-.15.74.3.97.9.55.11-.09.2-.18.29-.29-.06.3-.13.53-.22.8-.52.09-.94.14-1.4.26-.34.07-.67.2-.96.39-1.2.98.22 1.84 1.03 1.48.69-.22 1.16-.81 1.54-1.35l.2-.35c.59-.1 1.73-.07 1.95-.16.2-.1.16-.36 0-.42-.23-.1-1.34.02-1.76.08.15-.52.3-1.05.5-1.53.15-.47.43-.92.56-1.36.03-.16 0-.28-.14-.34-.22-.05-.33.05-.36.12-.4.94-.6 1.3-.82 1.58-.27.32-.4.44-.58.62-.12.08-.22.1-.16-.12.14-.48.3-.83.46-1.18.16-.29.3-.6.14-.83-.13-.15-.38-.13-.44-.05-.1.11.04.3-.42 1.1-.6.69-.8.79-1.22 1.06-.75.33-.74-.08-.52-.83.13-.3.3-.52.5-.77.15-.15.45-.35.4-.24-.12.44-.47.54-.38.9.1.24.37.06.47-.04.67-.86.6-1.55.09-1.54-.7 0-1.12.72-1.46 1.29zm8.05-1.13c-.39.2-.72.5-.95.88-.25.36-.43.77-.51 1.2-.04.29-.08.5.04.75.22.4.55.25.81.18.36-.15.58-.4.8-.71.05-.04.11-.03.18-.04.07 0 .16-.03.25-.05-.05.08-.17.16-.21.25-.07.15-.01.29.12.33.12.04.27-.1.41-.26l.39-.43c.03.26.01.54.17.74.23.23.72.12.91 0 .1-.06.07-.38-.04-.42-.12-.04-.4.19-.48.08-.15-.18-.09-.67-.09-.87.37-.38.74-.83 1.1-1.17l.13-.14a.32.32 0 0 0 .02-.2.33.33 0 0 0-.2-.17c-.08-.01-.15.03-.21.07-.3.3-.58.65-.84.94l.08-.69c0-.23.02-.33-.2-.35-.13-.01-.22.03-.25.23-.03.21-.09.62-.12 1-.1.15-.22.28-.33.4-.2.18-.33.2-.52.24.17-.25.3-.51.37-.8.08-.2.08-.43.06-.63-.04-.24-.13-.34-.37-.45a.78.78 0 0 0-.53.09zm.11 1.45c-.05.1-.12.2-.18.29-.25-.1-.24-.27-.26-.43.01-.35.19-.66.48-.85.48-.24.17.62-.04.99zM3.4 2.02c.1.02.1.09.09.16-.01.1-.43.88-.78 1.32-.14.18-.26.3-.34.3-.18 0-.22-.05-.22-.15 0-.3.63-1.22.99-1.49.13-.1.19-.15.26-.14zm9.52.2c.35-.19.47-.08.32.33-.15.47-.4.82-.8 1.13-.6.5-.49-.12-.38-.36.19-.4.45-.78.86-1.1zm1.6.75l.02.12c.04.26.27.3.41.44-.1.25-.1.26-.4.43-.28.14-.28-.05-.29-.15.02-.32.11-.6.25-.85zM9.65 5.34c-.25.44-.62.8-1.1 1-.72.24-.94-.21-.6-.51.37-.28 1.17-.4 1.7-.49z"></path>
                        </svg>
