<svg width="512" height="122" xmlns="http://www.w3.org/2000/svg">

 <g>
  <title>background</title>
  <rect fill="none" id="canvas_background" height="124" width="514" y="-1" x="-1"/>
 </g>
 <g>
  <title>Layer 1</title>
  <path fill="#ffffff" id="svg_1" d="m219.749,48.574001l0.001,-0.005l-3.251,11.519l3.25,-11.514l0,0z"/>
  <path fill="#ffffff" id="svg_2" d="m236.465,73.581001l-3.582,-0.022l3.582,0.022z"/>
  <path fill="#ffffff" id="svg_3" d="m235.544,90.783001l0.003,0l-21.457,0.078l21.454,-0.078l0,0z"/>
  <path fill="#ffffff" id="svg_4" d="m240.042,73.602001l-3.583,-0.021l3.583,0.021z"/>
  <path fill="#ffffff" id="svg_5" d="m237.425,89.321001l3.737,-14.255l-3.737,14.258l0,-0.003l0,0z"/>
  <path fill="#ffffff" id="svg_6" d="m316.427,23.674001l-6.962,32.733l6.962,-32.733z"/>
  <path fill="#ffffff" id="svg_7" d="m298.529,23.674001l-5.287,24.453l5.287,-24.455l0,0.002z"/>
  <path fill="#ffffff" id="svg_8" d="m315.234,22.201001l-14.89,0c-0.826,0 -1.646,0.663 -1.821,1.47l-5.287,24.455l-5.286,24.456c-0.174,0.807 -0.993,1.469 -1.82,1.469l-9.033,0l-1.505,0c-10.426,0 -9.221,-7.213 -7.084,-17.093c0.021,-0.099 0.042,-0.196 0.062,-0.298l0.234,-1.246c0.016,-0.08 0.031,-0.16 0.044,-0.233l0.477,-2.536l0.51,-2.717c0.155,-0.819 0.39,-2.017 0.545,-2.77l2.401,-11.741l2.406,-11.741c0.166,-0.81 -0.376,-1.475 -1.204,-1.475l-15.282,0c-0.824,0 -1.644,0.665 -1.812,1.473l-3.287,15.59l-3.286,15.587c-0.003,0.008 -0.005,0.018 -0.005,0.024l-0.305,1.449c-3.786,17.279 -2.782,33.758 17.789,34.273c0.337,0.01 0.597,0.013 0.597,0.013l32.289,0c0.827,0 1.644,-0.664 1.816,-1.472l6.965,-32.731l6.962,-32.734c0.173,-0.809 -0.362,-1.472 -1.19,-1.472l0,0z"/>
  <path fill="#ffffff" id="svg_9" d="m374.633,74.220001c0.826,0 1.368,0.662 1.202,1.472l-1.447,7.066"/>
  <path fill="#ffffff" id="svg_10" d="m372.945,89.829001l1.444,-7.07l-1.446,7.072c0,-0.002 0.002,-0.002 0.002,-0.002l0,0z"/>
  <path fill="#ffffff" id="svg_11" d="m371.132,91.315001c0.003,0 0.006,-0.002 0.008,-0.002c-4.383,0.035 -17.551,0.136 -27.447,0.136c12.044,0 27.439,-0.132 27.439,-0.132l0,-0.002z"/>
  <path fill="#ffffff" id="svg_12" d="m334.811,65.119001c-0.012,-0.774 0.869,-2.108 1.695,-2.108l-1.859,-0.03c-0.837,8.427 0.164,2.138 0.164,2.138l0,0z"/>
  <path fill="#ffffff" id="svg_13" d="m345.05,91.445001c-0.095,0 -0.192,0 -0.287,0.002c0.094,-0.002 0.192,-0.002 0.287,-0.002z"/>
  <path fill="#ffffff" id="svg_14" d="m374.633,74.220001c0.826,0 1.368,0.662 1.202,1.472l-1.447,7.066l-0.235,1.152"/>
  <path fill="#ffffff" id="svg_15" d="m352.099,91.430001l-0.061,0l0.061,0z"/>
  <path fill="#ffffff" id="svg_16" d="m348.443,91.441001l-0.212,0l0.212,0z"/>
  <path fill="#ffffff" id="svg_17" d="m347.328,91.443001c-0.118,0 -0.233,0 -0.351,0.002c0.118,-0.002 0.233,-0.002 0.351,-0.002z"/>
  <path fill="#ffffff" id="svg_18" d="m346.194,91.445001l-0.309,0l0.309,0z"/>
  <path fill="#ffffff" id="svg_19" d="m348.229,91.441001c-0.302,0 -0.604,0.002 -0.901,0.002c0.298,0 0.6,-0.002 0.901,-0.002z"/>
  <path fill="#ffffff" id="svg_20" d="m352.04,91.430001c-1.204,0.004 -2.406,0.009 -3.593,0.011c1.187,-0.002 2.39,-0.007 3.593,-0.011z"/>
  <path fill="#ffffff" id="svg_21" d="m371.143,91.313001l0,0c-3.212,0.025 -11.142,0.085 -19.05,0.115c7.904,-0.028 15.836,-0.089 19.05,-0.115z"/>
  <path fill="#ffffff" id="svg_22" d="m372.945,89.833001l1.21,-5.922l-1.212,5.925c0,-0.002 0.002,-0.002 0.002,-0.005l0,0.002z"/>
  <path fill="#ffffff" id="svg_23" d="m346.979,91.445001l-0.785,0l0.785,0z"/>
  <path fill="#ffffff" id="svg_24" d="m344.759,91.447001l-1.062,0l1.062,0z"/>
  <path fill="#ffffff" id="svg_25" d="m345.884,91.445001l-0.838,0l0.838,0z"/>
  <path id="svg_26" fill="#ffffff" d="m128.083,65.296001l2.312,-10.253l-2.644,11.72l-2.537,11.938l2.224,-10.465c0.172,-0.81 0.463,-2.133 0.645,-2.94l0,0z"/>
  <path fill="#ffffff" id="svg_27" d="m155.765,22.029001l-16.352,0c-0.827,0 -1.652,0.661 -1.837,1.465l-1.55,6.843l-1.551,6.846c-0.182,0.805 0.345,1.465 1.172,1.465l16.478,0c0.826,0 1.648,-0.661 1.825,-1.468l1.499,-6.844l1.499,-6.838l0,-0.002c0.176,-0.806 -0.356,-1.467 -1.183,-1.467l0,0z"/>
  <path fill="#ffffff" id="svg_28" d="m152.207,44.794001l0,-0.002l-4.795,22.187l4.795,-22.185z"/>
  <path id="svg_29" fill="#ffffff" d="m104.706,119.405753c0,0 8.243,0.105 13.482,0.105c-3.979,0 -10.554,-0.072 -13.489,-0.106c0.003,0 0.005,0.001 0.007,0.001l0,0z"/>
  <path id="svg_30" fill="#ffffff" d="m132.708,44.791001l-2.315,10.252l2.315,-10.252z"/>
  <path fill="#ffffff" id="svg_31" d="m151.024,43.323001l-16.48,0c-0.826,0 -1.652,0.661 -1.834,1.468l-2.315,10.253l-2.312,10.253c-0.182,0.806 -0.474,2.129 -0.646,2.938l-2.224,10.466l-2.223,10.465c-0.173,0.806 -0.528,2.111 -0.792,2.895c0,0 -3.079,9.161 -8.255,9.057c-0.22,-0.005 -0.434,-0.007 -0.646,-0.012c-2.507,-0.049 -4.479,-0.084 -4.479,-0.084l-0.004,0c-0.824,-0.012 -1.655,0.633 -1.847,1.435l-1.71,7.187l-1.707,7.181c-0.192,0.803 0.327,1.466 1.147,1.479c2.936,0.034 9.51,0.108 13.489,0.108c12.929,0 19.745,-7.163 24.113,-27.774l5.113,-23.657l4.795,-22.188c0.176,-0.809 -0.358,-1.469 -1.183,-1.47l0,0z"/>
  <path fill="#ffffff" id="svg_32" d="m385.134,90.610001c-0.827,0 -1.364,-0.663 -1.189,-1.473l12.397,-58.069"/>
  <path fill="#ffffff" id="svg_33" d="m402.362,89.135001l5.015,-24.786l-5.015,24.786z"/>
  <path fill="#ffffff" id="svg_34" d="m384.124,89.874001c-0.1,-0.404 -0.042,-1.396 0.134,-2.206l5.885,-27.564l-6.199,29.035c-0.174,0.809 0.362,1.472 1.188,1.472l1.506,0c-0.828,-0.001 -2.412,-0.332 -2.514,-0.737l0,0z"/>
  <path fill="#ffffff" id="svg_35" d="m401.384,90.279001c-0.451,0.182 -1.496,0.331 -2.324,0.331l1.506,0c0.826,0 1.638,-0.663 1.8,-1.475l0.301,-1.473c-0.166,0.81 -0.833,2.434 -1.283,2.617l0,0z"/>
  <path fill="#ffffff" id="svg_36" d="m404.874,76.743001l2.214,-10.938c-0.002,0.007 -0.002,0.016 -0.004,0.021l-2.21,10.917l0,0z"/>
  <path fill="#ffffff" id="svg_37" d="m453.79,34.958001l0.683,2.822c0.188,0.808 -0.334,1.463 -1.158,1.465"/>
  <path fill="#ffffff" id="svg_38" d="m402.663,87.664001l2.207,-10.919l-2.207,10.919z"/>
  <path fill="#ffffff" id="svg_39" d="m453.111,32.068001l0.676,2.89l-0.676,-2.89z"/>
  <path fill="#ffffff" id="svg_40" d="m407.084,65.804001c0.164,-0.809 0.438,-2.122 0.608,-2.922l2.364,-11.075l-2.677,12.544l-0.295,1.453l0,0z"/>
  <path fill="#ffffff" id="svg_41" d="m396.546,30.116001c-0.165,0.781 -0.375,1.769 -0.517,2.422l-5.883,27.564l6.198,-29.035l0.202,-0.951l0,0z"/>
  <path fill="#ffffff" id="svg_42" d="m454.469,37.780001l-0.684,-2.822l-0.676,-2.89l-0.343,-1.463c-1.337,-5.2 -5.267,-8.202 -13.799,-8.202l-13.283,-0.014l-12.234,-0.014l-1.05,0l-12.716,0c-0.825,0 -1.643,0.66 -1.812,1.47l0,0l-0.61,2.876l-0.718,3.397l-0.2,0.952l-6.199,29.035l-5.884,27.564c-0.175,0.811 -0.232,1.802 -0.133,2.206c0.1,0.405 1.686,0.736 2.514,0.736l12.416,0c0.828,0 1.875,-0.149 2.324,-0.331c0.45,-0.182 1.117,-1.807 1.282,-2.616l2.208,-10.92l2.209,-10.917c0.001,-0.004 0.002,-0.014 0.004,-0.021l0.295,-1.453l2.677,-12.544l2.365,-11.079c0.175,-0.805 0.988,-1.463 1.814,-1.465l39.074,-0.02c0.825,-0.003 1.347,-0.658 1.159,-1.465l0,0z"/>
  <path fill="#ffffff" id="svg_43" d="m504.772,12.266001c-0.829,0.006 -2.181,0.011 -3.009,0.011l-12.506,0c-0.829,0 -1.888,0.559 -2.354,1.241l-27.656,40.518c-0.467,0.684 -1.001,0.581 -1.185,-0.224l-2.034,-8.926c-0.183,-0.807 -1.012,-1.465 -1.837,-1.465l-17.78,0c-0.828,0 -1.317,0.649 -1.091,1.444l7.966,27.909c0.228,0.795 0.245,2.103 0.04,2.903l-3.473,13.508c-0.206,0.801 0.303,1.457 1.131,1.457l17.571,0c0.825,0 1.671,-0.656 1.875,-1.457l3.476,-13.508c0.204,-0.801 0.78,-1.998 1.277,-2.659l44.897,-59.59c0.499,-0.661 0.229,-1.197 -0.597,-1.192l-4.711,0.03l0,0z"/>
  <path fill="#ffffff" id="svg_44" d="m363.521,47.219001l0,-0.017c-0.104,0.897 -0.932,1.555 -1.759,1.555l-22.541,0c-0.779,0 -1.175,-0.53 -1.061,-1.184c0.007,-0.019 0.009,-0.036 0.021,-0.052c0,0 -0.008,0.002 -0.015,0.006c0.005,-0.026 0.005,-0.049 0.013,-0.075c0,0 0.042,-0.159 0.103,-0.384c2.152,-5.724 6.538,-9.48 14.78,-9.48c9.279,0.002 11.088,4.535 10.459,9.631l0,0zm-6.614,-26.017c-28.933,0 -35.79,17.562 -39.637,35.287c-3.846,18.066 -3.514,34.958 26.426,34.958l1.062,0c0.096,-0.002 0.191,-0.002 0.286,-0.002l0.839,0l0.307,0l0.785,0c0.118,-0.002 0.234,-0.002 0.351,-0.002c0.3,0 0.601,-0.002 0.902,-0.002l0.213,0c1.185,-0.002 2.388,-0.007 3.591,-0.011l0.061,0c7.908,-0.031 15.838,-0.092 19.052,-0.117c0.819,-0.012 1.623,-0.674 1.793,-1.477l1.212,-5.924l0.235,-1.154l1.446,-7.065c0.167,-0.811 -0.375,-1.473 -1.202,-1.473l-26.917,0c-10.705,0 -13.885,-2.845 -12.714,-11.208l43.028,0l-0.004,0.004c0.012,0 0.021,-0.004 0.031,-0.004c0.683,-0.013 1.316,-0.484 1.565,-1.111c0.047,-0.121 0.088,-0.246 0.104,-0.375l-0.005,0.004c6.388,-24.098 4.557,-40.327 -22.813,-40.327l0.003,-0.001z"/>
  <path fill="#ffffff" id="svg_45" d="m220.156,47.128001l-0.407,1.441c0,0.005 -0.001,0.005 -0.001,0.005l-3.249,11.514l-3.248,11.513c-0.225,0.795 -1.085,1.445 -1.913,1.445l-17.197,0c-13.043,0 -16.22,-10.201 -13.043,-25.25c3.175,-15.391 9.402,-24.959 22.24,-25.929c17.545,-1.322 21.054,11.017 16.818,25.261l0,0zm11.793,25.033c0,0 8.108,-19.687 9.95,-31.058c2.511,-15.222 -5.11,-37.296 -34.547,-37.296c-29.27,0 -41.979,21.076 -46.829,43.988c-4.849,23.077 1.505,43.316 30.607,43.151l22.96,-0.085l21.457,-0.078c0.827,-0.008 1.672,-0.662 1.882,-1.461l3.738,-14.258c0.208,-0.801 -0.297,-1.459 -1.123,-1.463l-3.583,-0.021l-3.581,-0.021c-0.704,-0.006 -1.105,-0.459 -1.021,-1.063c0.016,-0.109 0.04,-0.221 0.09,-0.335l0,0z"/>
  <path fill="#ffffff" id="svg_46" d="m376.843,58.984001c0,0.545 -0.441,0.987 -0.987,0.987c-0.545,0 -0.986,-0.442 -0.986,-0.987c0,-0.544 0.441,-0.984 0.986,-0.984c0.545,0 0.987,0.44 0.987,0.984z"/>
  <path fill="#78cff5" id="svg_47" d="m8.453,34.487753c-8.082,11.616 -7.075,26.728 -0.902,39.071c0.147,0.296 0.301,0.587 0.453,0.879c0.097,0.184 0.188,0.373 0.289,0.555c0.057,0.109 0.121,0.216 0.18,0.32c0.105,0.197 0.213,0.384 0.322,0.576c0.192,0.338 0.389,0.674 0.589,1.01c0.111,0.185 0.221,0.369 0.336,0.554c0.223,0.359 0.451,0.716 0.684,1.07c0.097,0.151 0.192,0.303 0.292,0.449c0.322,0.48 0.651,0.96 0.99,1.431c0.009,0.012 0.019,0.024 0.028,0.036c0.054,0.076 0.113,0.15 0.167,0.226c0.293,0.405 0.597,0.805 0.902,1.201c0.113,0.144 0.227,0.288 0.34,0.433c0.273,0.344 0.551,0.685 0.834,1.025c0.106,0.127 0.212,0.255 0.319,0.38c0.379,0.446 0.767,0.892 1.163,1.328c0.007,0.008 0.016,0.017 0.023,0.024c0.016,0.019 0.03,0.03 0.044,0.048c0.386,0.422 0.781,0.835 1.182,1.247c0.124,0.127 0.251,0.255 0.378,0.382c0.31,0.312 0.625,0.617 0.943,0.925c0.129,0.122 0.257,0.248 0.386,0.366c0.425,0.4 0.854,0.793 1.292,1.176c0.008,0.008 0.013,0.014 0.021,0.017c0.074,0.066 0.151,0.13 0.225,0.191c0.386,0.335 0.779,0.667 1.174,0.993c0.161,0.13 0.324,0.259 0.486,0.388c0.323,0.259 0.65,0.514 0.979,0.765c0.174,0.133 0.348,0.266 0.523,0.398c0.363,0.266 0.729,0.53 1.098,0.787c0.135,0.098 0.265,0.191 0.4,0.284c0.037,0.026 0.071,0.054 0.109,0.079c0.351,0.24 0.708,0.474 1.066,0.705c0.154,0.103 0.307,0.208 0.462,0.308c0.549,0.347 1.106,0.69 1.67,1.023c0.153,0.087 0.308,0.173 0.461,0.26c0.414,0.239 0.831,0.474 1.253,0.703c0.228,0.123 0.463,0.239 0.693,0.356c0.299,0.157 0.595,0.315 0.897,0.466c0.069,0.035 0.14,0.068 0.208,0.101c0.121,0.059 0.244,0.116 0.367,0.178c0.47,0.225 0.943,0.444 1.421,0.658c0.102,0.045 0.2,0.09 0.301,0.134c0.547,0.239 1.1,0.471 1.658,0.69c0.134,0.054 0.269,0.105 0.404,0.159c0.516,0.198 1.039,0.395 1.564,0.579c0.067,0.023 0.131,0.045 0.197,0.067c0.577,0.202 1.159,0.389 1.745,0.571c0.14,0.041 0.28,0.086 0.421,0.127c0.597,0.18 1.186,0.394 1.802,0.508c39.084,7.127 50.437,-23.487 50.437,-23.487c-9.535,12.422 -26.46,15.699 -42.496,12.051c-0.608,-0.137 -1.197,-0.326 -1.79,-0.502c-0.151,-0.045 -0.298,-0.09 -0.447,-0.136c-0.579,-0.178 -1.152,-0.364 -1.723,-0.561c-0.078,-0.027 -0.157,-0.057 -0.237,-0.085c-0.511,-0.18 -1.016,-0.369 -1.52,-0.563c-0.142,-0.057 -0.284,-0.11 -0.426,-0.167c-0.552,-0.218 -1.1,-0.445 -1.641,-0.683c-0.112,-0.047 -0.218,-0.097 -0.328,-0.146c-0.465,-0.21 -0.925,-0.422 -1.385,-0.643c-0.132,-0.064 -0.265,-0.127 -0.399,-0.192c-0.359,-0.175 -0.716,-0.361 -1.07,-0.544c-0.238,-0.125 -0.479,-0.244 -0.714,-0.374c-0.434,-0.232 -0.859,-0.474 -1.283,-0.72c-0.144,-0.081 -0.289,-0.158 -0.434,-0.241c-0.563,-0.332 -1.12,-0.676 -1.671,-1.024c-0.152,-0.097 -0.301,-0.2 -0.451,-0.3c-0.399,-0.258 -0.797,-0.52 -1.188,-0.791c-0.13,-0.086 -0.256,-0.182 -0.383,-0.269c-0.378,-0.267 -0.752,-0.538 -1.124,-0.812c-0.168,-0.124 -0.334,-0.253 -0.498,-0.377c-0.34,-0.261 -0.679,-0.522 -1.014,-0.793c-0.151,-0.12 -0.303,-0.241 -0.452,-0.362c-0.426,-0.351 -0.847,-0.702 -1.263,-1.063c-0.043,-0.039 -0.091,-0.076 -0.138,-0.116c-0.449,-0.396 -0.892,-0.801 -1.328,-1.208c-0.127,-0.121 -0.25,-0.238 -0.374,-0.36c-0.324,-0.307 -0.642,-0.617 -0.954,-0.935c-0.125,-0.125 -0.251,-0.249 -0.374,-0.373c-0.398,-0.408 -0.788,-0.82 -1.171,-1.239c-0.019,-0.021 -0.039,-0.039 -0.058,-0.062c-0.405,-0.442 -0.8,-0.895 -1.188,-1.352c-0.105,-0.125 -0.207,-0.246 -0.311,-0.369c-0.289,-0.348 -0.575,-0.7 -0.854,-1.057c-0.105,-0.127 -0.21,-0.259 -0.314,-0.39c-0.336,-0.437 -0.665,-0.871 -0.987,-1.314c-8.903,-12.144 -12.102,-28.894 -4.986,-42.649"/>
  <path fill="#78cff5" id="svg_48" d="m33.54,24.701753c-5.845,8.411 -5.527,19.669 -0.968,28.564c0.765,1.491 1.624,2.938 2.585,4.315c0.875,1.255 1.846,2.748 3.008,3.756c0.422,0.464 0.862,0.917 1.312,1.361c0.114,0.117 0.23,0.228 0.346,0.343c0.436,0.422 0.88,0.839 1.339,1.243c0.019,0.016 0.036,0.034 0.055,0.047c0.005,0.006 0.01,0.008 0.013,0.014c0.508,0.444 1.032,0.873 1.565,1.294c0.118,0.09 0.235,0.185 0.355,0.277c0.534,0.409 1.078,0.812 1.637,1.195c0.017,0.012 0.031,0.023 0.047,0.037c0.246,0.169 0.498,0.328 0.747,0.491c0.12,0.078 0.234,0.161 0.354,0.234c0.398,0.255 0.802,0.504 1.213,0.743c0.058,0.036 0.115,0.065 0.171,0.099c0.354,0.204 0.713,0.405 1.073,0.6c0.125,0.071 0.253,0.133 0.381,0.199c0.249,0.13 0.497,0.262 0.75,0.389c0.037,0.018 0.076,0.035 0.113,0.051c0.515,0.254 1.035,0.498 1.565,0.729c0.113,0.05 0.23,0.095 0.346,0.143c0.423,0.18 0.852,0.355 1.282,0.521c0.183,0.069 0.367,0.135 0.55,0.202c0.39,0.145 0.783,0.277 1.178,0.41c0.179,0.057 0.354,0.115 0.533,0.17c0.562,0.174 1.117,0.395 1.703,0.492c30.176,5 37.144,-18.234 37.144,-18.234c-6.281,9.043 -18.442,13.36 -31.42,9.991c-0.576,-0.151 -1.144,-0.316 -1.708,-0.494c-0.173,-0.053 -0.343,-0.109 -0.514,-0.166c-0.401,-0.13 -0.8,-0.269 -1.196,-0.412c-0.181,-0.065 -0.362,-0.132 -0.54,-0.2c-0.434,-0.167 -0.862,-0.339 -1.287,-0.52c-0.116,-0.05 -0.233,-0.094 -0.347,-0.146c-0.533,-0.231 -1.057,-0.477 -1.575,-0.73c-0.266,-0.131 -0.527,-0.269 -0.789,-0.402c-0.151,-0.079 -0.304,-0.157 -0.456,-0.235c-0.336,-0.183 -0.67,-0.371 -1,-0.563c-0.078,-0.045 -0.159,-0.087 -0.238,-0.135c-0.409,-0.239 -0.812,-0.485 -1.21,-0.738c-0.123,-0.079 -0.241,-0.164 -0.364,-0.244c-0.263,-0.171 -0.526,-0.344 -0.784,-0.519c-0.556,-0.383 -1.098,-0.785 -1.631,-1.193c-0.123,-0.097 -0.247,-0.191 -0.367,-0.288c-5.681,-4.485 -10.183,-10.615 -12.324,-17.564c-2.244,-7.208 -1.761,-15.299 2.126,-21.865"/>
  <path fill="#78cff5" id="svg_49" d="m54.639,17.389753c-3.445,5.07 -3.784,11.368 -1.393,16.968c2.521,5.944 7.687,10.607 13.717,12.817c0.249,0.093 0.497,0.175 0.749,0.261c0.11,0.034 0.219,0.071 0.33,0.104c0.355,0.112 0.708,0.242 1.075,0.311c16.662,3.22 21.182,-8.551 22.385,-10.283c-3.959,5.7 -10.612,7.068 -18.775,5.087c-0.645,-0.158 -1.354,-0.39 -1.975,-0.61c-0.797,-0.284 -1.582,-0.608 -2.346,-0.974c-1.449,-0.697 -2.831,-1.542 -4.112,-2.509c-7.304,-5.542 -11.843,-16.116 -7.076,-24.727"/>
 </g>
</svg>